<svg width="1280" height="720" xmlns="http://www.w3.org/2000/svg">
  <defs>
    <linearGradient id="bg" x1="0%" y1="0%" x2="100%" y2="100%">
      <stop offset="0%" style="stop-color:#0f172a"/>
      <stop offset="50%" style="stop-color:#1e3a5f"/>
      <stop offset="100%" style="stop-color:#1e40af"/>
    </linearGradient>
  </defs>
  <rect width="1280" height="720" fill="url(#bg)"/>
  <g opacity="0.2" fill="#ffffff">
    <rect x="100" y="100" width="60" height="80"/>
    <rect x="180" y="100" width="60" height="80"/>
    <rect x="260" y="100" width="60" height="80"/>
    <rect x="100" y="200" width="60" height="80"/>
    <rect x="180" y="200" width="60" height="80"/>
    <rect x="260" y="200" width="60" height="80"/>
  </g>
  <g opacity="0.3" stroke="#60a5fa" stroke-width="2" fill="none">
    <line x1="100" y1="0" x2="100" y2="720"/>
    <line x1="300" y1="0" x2="300" y2="720"/>
    <line x1="500" y1="0" x2="500" y2="720"/>
    <line x1="700" y1="0" x2="700" y2="720"/>
    <line x1="900" y1="0" x2="900" y2="720"/>
    <line x1="1100" y1="0" x2="1100" y2="720"/>
  </g>
  <text x="640" y="280" font-family="Arial, sans-serif" font-size="56" font-weight="bold" fill="#ffffff" text-anchor="middle">OpenClaw 完全命令参考</text>
  <text x="640" y="350" font-family="Arial, sans-serif" font-size="32" fill="#93c5fd" text-anchor="middle">50+ 核心命令详解 · 14 个功能模块</text>
  <rect x="240" y="400" width="800" height="2" fill="#60a5fa"/>
  <text x="640" y="450" font-family="Arial, sans-serif" font-size="24" fill="#cbd5e1" text-anchor="middle">Gateway · Agent · 消息 · 浏览器 · 设备 · 定时任务</text>
</svg>
