<svg width="1280" height="720" xmlns="http://www.w3.org/2000/svg">
  <defs>
    <linearGradient id="bg" x1="0%" y1="0%" x2="100%" y2="100%">
      <stop offset="0%" style="stop-color:#0f172a"/>
      <stop offset="100%" style="stop-color:#3a5ba8"/>
    </linearGradient>
  </defs>
  <rect width="1280" height="720" fill="url(#bg)"/>
  <g opacity="0.3" stroke="#6496ff" stroke-width="1">
    <line x1="100" y1="0" x2="150" y2="720"/>
    <line x1="200" y1="0" x2="250" y2="720"/>
    <line x1="300" y1="0" x2="350" y2="720"/>
    <line x1="400" y1="0" x2="450" y2="720"/>
    <line x1="500" y1="0" x2="550" y2="720"/>
    <line x1="600" y1="0" x2="650" y2="720"/>
    <line x1="700" y1="0" x2="750" y2="720"/>
    <line x1="800" y1="0" x2="850" y2="720"/>
    <line x1="900" y1="0" x2="950" y2="720"/>
    <line x1="1000" y1="0" x2="1050" y2="720"/>
    <line x1="1100" y1="0" x2="1150" y2="720"/>
  </g>
  <rect x="60" y="270" width="500" height="120" fill="rgba(0,0,0,0.5)" rx="10"/>
  <text x="80" y="345" font-family="Arial, sans-serif" font-size="72" font-weight="bold" fill="#ffffff">OpenClaw</text>
  <text x="80" y="400" font-family="Arial, sans-serif" font-size="32" fill="#96c8ff">AI 自动化助手</text>
  <text x="80" y="450" font-family="Arial, sans-serif" font-size="20" fill="#6496ff" opacity="0.8">5 分钟打造你的 AI 自动化工作流</text>
</svg>
